# xmcd
#
# Track frame offsets: 
#        150
#        142118
#        180988
#
# Disc length: 3249 seconds
#
# Revision: 1
# Processed by: cddbd v1.5.2PL0 Copyright (c) Steve Scherf et al.
# Submitted via: ExactAudioCopy v0.99pb5
#
DISCID=220caf03
DTITLE=Maneri Ensemble - Going to Church
DYEAR=2002
DGENRE=Jazz
TTITLE0=Blood and Body
TTITLE1=Before the Sermon
TTITLE2=Going to Church
EXTD=
EXTT0=
EXTT1=
EXTT2=
PLAYORDER=
